<?xml version="1.0" standalone="no"?><!DOCTYPE svg PUBLIC "-//W3C//DTD SVG 1.1//EN" "http://www.w3.org/Graphics/SVG/1.1/DTD/svg11.dtd"><svg t="1520215189789" class="icon" style="" viewBox="0 0 1024 1024" version="1.1" xmlns="http://www.w3.org/2000/svg" p-id="13323" xmlns:xlink="http://www.w3.org/1999/xlink" width="200" height="200"><defs><style type="text/css"></style></defs><path d="M444.345379 192.759172h-216.452413a34.251034 34.251034 0 0 0-34.251035 34.215725v216.417103c0 18.961655 15.39531 34.251034 34.251035 34.251034h216.452413a34.215724 34.215724 0 0 0 34.215724-34.251034V226.974897a34.251034 34.251034 0 0 0-34.215724-34.215725zM443.533241 545.792H226.621793a34.251034 34.251034 0 0 0-34.286345 34.286345v216.840827c0 18.961655 15.32469 34.427586 34.286345 34.427587h216.911448a34.356966 34.356966 0 0 0 34.286345-34.427587v-216.840827a34.251034 34.251034 0 0 0-34.286345-34.286345zM797.448828 192.759172h-216.452414a34.251034 34.251034 0 0 0-34.251035 34.215725v216.417103c0 18.961655 15.39531 34.251034 34.251035 34.251034h216.452414a34.215724 34.215724 0 0 0 34.215724-34.251034V226.974897a34.251034 34.251034 0 0 0-34.215724-34.215725zM796.63669 545.792h-216.911449a34.251034 34.251034 0 0 0-34.286344 34.286345v216.840827c0 18.961655 15.32469 34.427586 34.286344 34.427587h216.911449a34.427586 34.427586 0 0 0 34.356965-34.427587v-216.840827a34.321655 34.321655 0 0 0-34.356965-34.286345z" fill="#8a8a8a" p-id="13324"></path></svg>