<?xml version="1.0" standalone="no"?><!DOCTYPE svg PUBLIC "-//W3C//DTD SVG 1.1//EN" "http://www.w3.org/Graphics/SVG/1.1/DTD/svg11.dtd"><svg t="1520214873314" class="icon" style="" viewBox="0 0 1024 1024" version="1.1" xmlns="http://www.w3.org/2000/svg" p-id="6136" xmlns:xlink="http://www.w3.org/1999/xlink" width="200" height="200"><defs><style type="text/css"></style></defs><path d="M127.48564 246.653633l768.993927 0c16.60894 0 30.100762-13.46057 30.100762-30.099529 0-16.632819-13.491822-30.094412-30.100762-30.094412L127.48564 186.459692c-16.62429 0-30.095645 13.46057-30.095645 30.094412C97.389995 233.193063 110.861349 246.653633 127.48564 246.653633z" p-id="6137" fill="#8a8a8a"></path><path d="M896.479567 495.745804 127.48564 495.745804c-16.62429 0-30.095645 13.46057-30.095645 30.094412 0 16.638959 13.471355 30.098505 30.095645 30.098505l768.993927 0c16.60894 0 30.100762-13.459546 30.100762-30.098505C926.580328 509.206374 913.088507 495.745804 896.479567 495.745804z" p-id="6138" fill="#8a8a8a"></path><path d="M896.479567 804.997124 127.48564 804.997124c-16.62429 0-30.095645 13.470803-30.095645 30.098505 0 16.638959 13.471355 30.098505 30.095645 30.098505l768.993927 0c16.60894 0 30.100762-13.459546 30.100762-30.098505C926.580328 818.467927 913.088507 804.997124 896.479567 804.997124z" p-id="6139" fill="#8a8a8a"></path></svg>