<?xml version="1.0" standalone="no"?><!DOCTYPE svg PUBLIC "-//W3C//DTD SVG 1.1//EN" "http://www.w3.org/Graphics/SVG/1.1/DTD/svg11.dtd"><svg t="1520215105441" class="icon" style="" viewBox="0 0 1024 1024" version="1.1" xmlns="http://www.w3.org/2000/svg" p-id="12776" xmlns:xlink="http://www.w3.org/1999/xlink" width="200" height="200"><defs><style type="text/css"></style></defs><path d="M961.219584 916.31616 688.850944 643.946496c53.470208-62.217216 86.011904-142.891008 86.011904-231.169024 0-195.97312-159.427584-355.400704-355.400704-355.400704-195.97312 0-355.400704 159.427584-355.400704 355.400704 0 195.97312 159.427584 355.400704 355.400704 355.400704 77.601792 0 149.220352-25.276416 207.731712-67.638272l274.900992 274.900992L961.219584 916.31616zM105.873408 412.777472c0-172.914688 140.686336-313.588736 313.588736-313.588736 172.9024 0 313.588736 140.674048 313.588736 313.588736 0 172.91264-140.68736 313.588736-313.588736 313.588736C246.55872 726.366208 105.873408 585.690112 105.873408 412.777472z" p-id="12777" fill="#8a8a8a"></path></svg>