<?xml version="1.0" standalone="no"?><!DOCTYPE svg PUBLIC "-//W3C//DTD SVG 1.1//EN" "http://www.w3.org/Graphics/SVG/1.1/DTD/svg11.dtd"><svg t="1520562587156" class="icon" style="" viewBox="0 0 1024 1024" version="1.1" xmlns="http://www.w3.org/2000/svg" p-id="12171" xmlns:xlink="http://www.w3.org/1999/xlink" width="200" height="200"><defs><style type="text/css"></style></defs><path d="M597.333333 554.325333q17.664 0 30.336 12.672l268.330667 268.330667 0-195.669333q0-17.664 12.501333-30.165333t30.165333-12.501333 30.165333 12.501333 12.501333 30.165333l0 298.666667q0 17.664-12.672 30.336t-30.336 12.672l-298.666667 0q-17.664 0-30.165333-12.501333t-12.501333-30.165333 12.501333-30.165333 30.165333-12.501333l195.669333 0-268.330667-268.330667q-12.330667-13.013333-12.330667-30.336 0-17.664 12.501333-30.336t30.165333-12.672zM85.333333 42.666667l298.666667 0q17.664 0 30.165333 12.501333t12.501333 30.165333-12.501333 30.165333-30.165333 12.501333l-195.669333 0 268.330667 267.989333q12.672 12.672 12.672 30.336t-12.672 30.165333-30.336 12.501333q-16.981333 0-30.336-12.330667l-267.989333-268.330667 0 195.669333q0 17.664-12.501333 30.165333t-30.165333 12.501333-30.165333-12.501333-12.501333-30.165333l0-298.666667q0-17.664 12.501333-30.165333t30.165333-12.501333z" p-id="12172" fill="#ffffff"></path></svg>