<?xml version="1.0" standalone="no"?><!DOCTYPE svg PUBLIC "-//W3C//DTD SVG 1.1//EN" "http://www.w3.org/Graphics/SVG/1.1/DTD/svg11.dtd"><svg t="1502778899562" class="icon" style="" viewBox="0 0 1024 1024" version="1.1" xmlns="http://www.w3.org/2000/svg" p-id="11649" xmlns:xlink="http://www.w3.org/1999/xlink" width="200" height="200"><defs><style type="text/css"></style></defs><path d="M512.000586 0c-282.76991 0-511.999414 229.229504-511.999413 511.999414s229.230677 511.999414 511.999413 511.999413S1024 794.769323 1024 511.999414 794.770496 0 512.000586 0zM705.957156 653.831233c18.100924 18.102097 18.100924 47.722964 0 65.825061-18.102097 18.100924-47.724137 18.100924-65.825061 0L508.481972 588.006171 376.830677 719.656294c-18.102097 18.100924-47.722964 18.100924-65.825061 0-18.102097-18.102097-18.102097-47.722964 0-65.825061l131.650122-131.650123-131.650122-131.650122c-18.102097-18.102097-18.102097-47.722964 0-65.825061 18.102097-18.102097 47.722964-18.102097 65.825061 0l131.650122 131.650122L640.130922 324.705927c18.100924-18.102097 47.722964-18.102097 65.825061 0 18.100924 18.102097 18.100924 47.722964 0 65.825061L574.307033 522.18111 705.957156 653.831233z" p-id="11650" fill="#1296db"></path></svg>