<?xml version="1.0" standalone="no"?><!DOCTYPE svg PUBLIC "-//W3C//DTD SVG 1.1//EN" "http://www.w3.org/Graphics/SVG/1.1/DTD/svg11.dtd"><svg t="1502767329463" class="icon" style="" viewBox="0 0 1024 1024" version="1.1" xmlns="http://www.w3.org/2000/svg" p-id="1570" xmlns:xlink="http://www.w3.org/1999/xlink" width="200" height="200"><defs><style type="text/css"></style></defs><path d="M511.9744 832.0512a55.1168 55.1168 0 0 1-55.0912-55.04 55.1168 55.1168 0 0 1 110.1568 0c0 30.3616-24.704 55.04-55.0656 55.04m0-607.3088c30.1056 0 54.6304 24.4992 54.6304 54.6816l-15.6672 346.88c0 31.5904-19.5328 48.64-38.9632 48.64-18.6368 0-37.5808-17.0496-37.5808-49.6384l-17.0752-344.832c0-31.232 24.5504-55.7312 54.656-55.7312m0-224.7424C229.632 0 0 229.632 0 512c0 282.2912 229.6576 512 511.9744 512C794.2656 1024 1024 794.2912 1024 512 1024 229.632 794.2656 0 511.9744 0" fill="#E6A623" p-id="1571"></path></svg>